<svg id="Layer_1" data-name="Layer 1" xmlns="http://www.w3.org/2000/svg" xmlns:xlink="http://www.w3.org/1999/xlink" viewBox="0 0 1920 1080"><defs><style>.cls-1{fill:url(#radial-gradient);}</style><radialGradient id="radial-gradient" cx="961.08" cy="540" r="779.51" gradientUnits="userSpaceOnUse"><stop offset="0" stop-color="#ba7500"/><stop offset="0.02" stop-color="#b77100"/><stop offset="0.16" stop-color="#a25900"/><stop offset="0.3" stop-color="#954a00"/><stop offset="0.41" stop-color="#914500"/><stop offset="0.42" stop-color="#8d4300"/><stop offset="0.51" stop-color="#622f00"/><stop offset="0.61" stop-color="#3f1e00"/><stop offset="0.7" stop-color="#231100"/><stop offset="0.8" stop-color="#100700"/><stop offset="0.9" stop-color="#040200"/><stop offset="1"/></radialGradient></defs><rect x="2" width="1918" height="1080"/><path class="cls-1" d="M1213.37,1080h-2V0h2ZM1718.11,0h-2V1080h2Zm100.94,0h-2V1080h2ZM1617.16,0h-2V1080h2ZM1920,0h-2V1080h2ZM1112.42,0h-2V1080h2Zm302.84,0h-2V1080h2ZM809.58,0h-2V1080h2Zm706.63,0h-2V1080h2ZM910.53,0h-2V1080h2Zm403.79,0h-2V1080h2ZM304.84,0h-2V1080h2Zm706.63,0h-2V1080h2ZM708.63,0h-2V1080h2ZM203.89,0h-2V1080h2ZM506.74,0h-2V1080h2ZM2,0H0V1080H2ZM607.68,0h-2V1080h2ZM103,0h-2V1080h2ZM405.79,0h-2V1080h2ZM1922.16,843.84v-2H1v2Zm0,100.95v-2H1v2Zm0-605.68v-2H1v2Zm0,706.63v-2H1v2Zm0-302.84v-2H1v2Zm0-504.74v-2H1v2Zm0,302.84v-2H1v2Zm0-504.74v-2H1v2Zm0,605.69v-2H1v2Zm0-504.74v-2H1v2Zm0,302.84v-2H1v2Z"/></svg>